<?xml version="1.0" encoding="utf-8"?>
<!-- Font Awesome Free 5.15.3 by @fontawesome - https://fontawesome.com License - https://fontawesome.com/license/free (Icons: CC BY 4.0, Fonts: SIL OFL 1.1, Code: MIT License). The fill colour and stroke of this SVG has been modified. -->
<svg version="1.1" id="Layer_1" xmlns="http://www.w3.org/2000/svg" xmlns:xlink="http://www.w3.org/1999/xlink" x="0px" y="0px"
	 viewBox="0 0 448 512" style="enable-background:new 0 0 448 512;" xml:space="preserve">
<style type="text/css">
	.st0{fill:#FFFFFF;stroke:#000000;stroke-width:5;stroke-miterlimit:10;}
</style>
<path class="st0" d="M128.1,416c0,35.4-28.7,64-64,64S0,451.3,0,416s28.7-64,64-64S128.1,380.6,128.1,416L128.1,416z M303.7,463.2
	c-8.4-154.6-132.2-278.6-287-287c-9.1-0.5-16.8,6.8-16.8,16v48.1c0,8.4,6.5,15.5,14.9,16c111.8,7.3,201.5,96.7,208.8,208.8
	c0.5,8.4,7.6,14.9,16,14.9h48.1C296.9,480,304.2,472.3,303.7,463.2L303.7,463.2z M448,463.5C439.6,229.7,251.5,40.4,16.5,32
	C7.5,31.7,0,39,0,48v48.1c0,8.6,6.8,15.6,15.5,16c191.2,7.8,344.6,161.3,352.5,352.5c0.4,8.6,7.4,15.5,16,15.5H432
	C441,480,448.3,472.5,448,463.5z"/>
</svg>
