<svg xmlns="http://www.w3.org/2000/svg" width="31" height="39" fill="none" viewBox="0 0 31 39"><path fill="#EC5855" fill-rule="evenodd" d="m15.5 36.375 1.328 1.324a1.875 1.875 0 0 1-2.657 0l-.012-.013-.032-.032-.116-.118a92.923 92.923 0 0 1-6.555-7.526c-1.672-2.157-3.382-4.594-4.682-7.002C1.504 20.648.5 18.09.5 15.75c0-8.51 6.735-15 15-15s15 6.49 15 15c0 2.34-1.003 4.898-2.274 7.256-1.3 2.412-3.008 4.847-4.682 7.003a92.981 92.981 0 0 1-6.555 7.527l-.117.118-.031.032-.012.01-1.329-1.321Zm0-15a5.625 5.625 0 1 0 0-11.25 5.625 5.625 0 0 0 0 11.25Z" clip-rule="evenodd"/></svg>
