<svg width="35" height="35" viewBox="0 0 35 35" fill="none" xmlns="http://www.w3.org/2000/svg">
<path d="M25 23.125C26.4918 23.125 27.9226 23.7176 28.9775 24.7725C30.0324 25.8274 30.625 27.2582 30.625 28.75C30.625 30.2418 30.0324 31.6726 28.9775 32.7275C27.9226 33.7824 26.4918 34.375 25 34.375C23.5082 34.375 22.0774 33.7824 21.0225 32.7275C19.9676 31.6726 19.375 30.2418 19.375 28.75C19.375 27.2582 19.9676 25.8274 21.0225 24.7725C22.0774 23.7176 23.5082 23.125 25 23.125ZM8.125 15.625C10.1141 15.625 12.0218 16.4152 13.4283 17.8217C14.8348 19.2282 15.625 21.1359 15.625 23.125C15.625 25.1141 14.8348 27.0218 13.4283 28.4283C12.0218 29.8348 10.1141 30.625 8.125 30.625C6.13588 30.625 4.22822 29.8348 2.8217 28.4283C1.41518 27.0218 0.625 25.1141 0.625 23.125C0.625 21.1359 1.41518 19.2282 2.8217 17.8217C4.22822 16.4152 6.13588 15.625 8.125 15.625ZM25 0.625C27.4864 0.625 29.871 1.61272 31.6291 3.37087C33.3873 5.12903 34.375 7.5136 34.375 10C34.375 12.4864 33.3873 14.871 31.6291 16.6291C29.871 18.3873 27.4864 19.375 25 19.375C22.5136 19.375 20.129 18.3873 18.3709 16.6291C16.6127 14.871 15.625 12.4864 15.625 10C15.625 7.5136 16.6127 5.12903 18.3709 3.37087C20.129 1.61272 22.5136 0.625 25 0.625Z" fill="#067584"/>
</svg>
