<?xml version="1.0" encoding="UTF-8"?>
<svg enable-background="new 0 0 253 159.9" version="1.1" viewBox="0 0 253 159.9" xml:space="preserve" xmlns="http://www.w3.org/2000/svg" xmlns:cc="http://creativecommons.org/ns#" xmlns:dc="http://purl.org/dc/elements/1.1/" xmlns:rdf="http://www.w3.org/1999/02/22-rdf-syntax-ns#"><metadata><rdf:RDF><cc:Work rdf:about=""><dc:format>image/svg+xml</dc:format><dc:type rdf:resource="http://purl.org/dc/dcmitype/StillImage"/><dc:title/></cc:Work></rdf:RDF></metadata>
<style type="text/css">
	.st0{fill:none;}
	.st2{font-size:30px;}
</style>
<rect x="-7.6303e-9" y=".047847" width="253.07" height="159.89" rx="0" ry="1.6301" fill="#fff" fill-opacity="1"/><path d="m1.9 107.2h156.3v50.8h-156.3v-50.8zm0-52.7h156.3v50.8h-156.3v-50.8zm0-52.6h77.2v50.8h-77.2v-50.8zm79 0h77.2v50.8h-77.2v-50.8zm0-1.9h-80.9v160h160v-160h-79.1z"/>
<polygon points="21.3 19.5 15.9 19.5 15.9 16.5 30.2 16.5 30.2 19.5 24.8 19.5 24.8 37.9 21.3 37.9"/>
<polygon points="31.6 16.5 35 16.5 35 25.5 43.4 25.5 43.4 16.5 46.8 16.5 46.8 37.9 43.4 37.9 43.4 28.6 35 28.6 35 37.9 31.6 37.9"/>
<polygon points="50.9 16.5 63.1 16.5 63.1 19.5 54.3 19.5 54.3 25.6 61.7 25.6 61.7 28.6 54.3 28.6 54.3 34.9 63.1 34.9 63.1 37.9 50.9 37.9"/>
<path d="m19.7 69.2h3.8l6.4 12.5c0.6 1.1 1.1 2.7 1.6 4h0.2c-0.2-1.7-0.3-3.6-0.3-4.8v-11.7h3.5v21.4h-3.7l-6.3-12.3c-0.7-1.4-1.2-2.7-1.7-4.2h-0.2c0.2 1.4 0.3 3.3 0.3 5v11.5h-3.5c-0.1 0-0.1-21.4-0.1-21.4z"/>
<path d="m47.8 82.6-1.7-6.3c-0.3-1.1-0.6-2.2-0.9-3.8h-0.2c-0.3 1.6-0.5 2.6-0.8 3.8l-1.7 6.3h5.3zm-4.8-13.4h4.2l6.2 21.4h-3.5l-1.5-5.2h-6.6l-1.4 5.2h-3.6l6.2-21.4z"/>
<polygon points="57.2 72.3 51.8 72.3 51.8 69.2 66 69.2 66 72.3 60.6 72.3 60.6 90.7 57.2 90.7"/>
<rect x="67.8" y="69.2" width="3.5" height="21.4"/>
<path d="m87.5 80c0-5.3-1.7-8-4.8-8-3.2 0-4.8 2.7-4.8 8 0 5.2 1.6 7.9 4.8 7.9s4.8-2.7 4.8-7.9m-13.3 0c0-7 3-11.1 8.5-11.1 5.4 0 8.4 4.1 8.4 11.1 0 6.9-3 11-8.4 11s-8.5-4.1-8.5-11"/>
<path d="M94.3,69.2H98l6.4,12.5c0.6,1.1,1.2,2.7,1.7,4h0.2c-0.2-1.7-0.3-3.6-0.3-4.8V69.2h3.4v21.4h-3.7l-6.3-12.3  c-0.7-1.4-1.2-2.7-1.7-4.2h-0.2c0.2,1.4,0.3,3.3,0.3,5v11.5h-3.5V69.2z"/>
<path d="m122.4 82.6-1.7-6.3c-0.3-1.1-0.6-2.2-0.9-3.8h-0.2c-0.3 1.6-0.5 2.6-0.8 3.8l-1.7 6.3h5.3zm-4.8-13.4h4.2l6.2 21.4h-3.5l-1.5-5.2h-6.6l-1.4 5.2h-3.6l6.2-21.4z"/>
<polygon points="129.9 69.2 133.4 69.2 133.4 87.6 141.8 87.6 141.8 90.7 129.9 90.7"/>
<path d="m26.9 135.2-1.7-6.3c-0.3-1.1-0.6-2.2-0.9-3.8h-0.2c-0.3 1.6-0.5 2.6-0.8 3.8l-1.7 6.3h5.3zm-4.8-13.4h4.2l6.2 21.4h-3.5l-1.5-5.2h-6.6l-1.4 5.2h-3.6l6.2-21.4z"/>
<path d="m39.9 132.5c2.5 0 3.4-1.6 3.4-3.9 0-2.2-1-3.8-3.4-3.8h-2.7v7.7h2.7zm-6.1-10.7h6.4c4.5 0 6.7 2.4 6.7 6.6 0 3.1-1.5 5.6-3.7 6.3v0.2c1 1.1 4 7.5 4.8 7.9v0.5h-3.8c-1-0.6-3.6-7.2-4.4-7.8h-2.5v7.8h-3.5v-21.5z"/>
<path d="m52.9 132.5c0 5.3 1.9 8 4.8 8s4-2 4-5.2l3.5 0.1c0 0.2 0.1 0.4 0.1 0.6 0 4.4-2.1 7.5-7.5 7.5-5.2 0-8.5-3.9-8.5-11.1 0-7.1 3.3-11 8.5-11 6.4 0 7.5 4.6 7.5 7.2 0 0.3 0 0.7-0.1 0.9l-3.5 0.1c0-3.3-1.2-5.2-4-5.2-2.9 0.2-4.8 2.9-4.8 8.1"/>
<polygon points="68 121.8 71.5 121.8 71.5 130.9 79.8 130.9 79.8 121.8 83.3 121.8 83.3 143.3 79.8 143.3 79.8 133.9 71.5 133.9 71.5 143.3 68 143.3"/>
<rect x="87.9" y="121.8" width="3.5" height="21.4"/>
<path d="m94.2 121.8h3.6l3.2 12.3c0.5 1.9 0.8 3.6 1.1 5.6h0.2c0.3-2 0.6-3.7 1.1-5.6l3.2-12.3h3.6l-6.1 21.4h-4.1l-5.8-21.4z"/>
<polygon points="112.7 121.8 125 121.8 125 124.9 116.2 124.9 116.2 130.9 123.6 130.9 123.6 133.9 116.2 133.9 116.2 140.2 125 140.2 125 143.3 112.7 143.3"/>
<path d="m130.4 136c0 0.2-0.1 0.5-0.1 0.8 0 1.9 0.8 3.7 3.4 3.7 2.1 0 3.3-1.2 3.3-2.9 0-1.6-0.7-2.4-2.2-3l-3.4-1.3c-2.4-0.9-4.2-2.4-4.2-5.7 0-3.5 2.3-6.1 6.6-6.1 5.5 0 6.4 3.6 6.4 5.9 0 0.3 0 0.7-0.1 1.1l-3.4 0.1c0-0.2 0.1-0.5 0.1-0.7 0-1.7-0.6-3.2-3-3.2-2.1 0-3 1.2-3 2.8 0 1.7 0.9 2.5 2.2 2.9l3.5 1.3c2.6 1 4.3 2.6 4.3 5.8 0 3.6-2.4 6.1-7 6.1-5.9 0-6.8-3.9-6.8-6.5 0-0.3 0-0.6 0.1-1l3.3-0.1z"/>
<rect class="st0" x="172.2" y="122.6" width="93" height="48"/>
<text class="st1 st2" transform="translate(172.22 143.58)" font-family="'Open Sans', sans-serif">BETA</text>

</svg>
