<?xml version="1.0" encoding="utf-8"?>
<!-- Generator: Adobe Illustrator 23.0.3, SVG Export Plug-In . SVG Version: 6.00 Build 0)  -->
<svg version="1.1" id="Layer_1" xmlns="http://www.w3.org/2000/svg" xmlns:xlink="http://www.w3.org/1999/xlink" x="0px" y="0px"
	 viewBox="0 0 160 159.88" style="enable-background:new 0 0 160 159.88;" xml:space="preserve">
<style type="text/css">
	.st0{fill:#FFFFFF;}
</style>
<path class="st0" d="M1.86,107.21h156.27v50.81H1.86V107.21z M1.86,54.54h79.07h77.2v50.81H1.86V54.54z M1.86,1.86h77.2v50.81H1.86
	V1.86z M80.93,1.86h77.2v50.81h-77.2V1.86z M80.93,0H0v52.67v1.86v50.81v1.86v52.67h160v-52.67v-1.86V52.67V0H80.93z"/>
<polygon class="st0" points="21.32,19.55 15.91,19.55 15.91,16.51 30.2,16.51 30.2,19.55 24.8,19.55 24.8,37.93 21.32,37.93 "/>
<polygon class="st0" points="31.56,16.51 35.04,16.51 35.04,25.54 43.37,25.54 43.37,16.51 46.85,16.51 46.85,37.93 43.37,37.93 
	43.37,28.62 35.04,28.62 35.04,37.93 31.56,37.93 "/>
<polygon class="st0" points="50.86,16.51 63.13,16.51 63.13,19.52 54.34,19.52 54.34,25.57 61.7,25.57 61.7,28.59 54.34,28.59 
	54.34,34.89 63.13,34.89 63.13,37.93 50.86,37.93 "/>
<path class="st0" d="M19.71,69.23h3.76l6.4,12.54c0.56,1.09,1.15,2.73,1.65,4.03h0.22c-0.22-1.74-0.34-3.57-0.34-4.78v-11.8h3.45
	v21.42h-3.73l-6.31-12.32c-0.68-1.37-1.18-2.67-1.74-4.19h-0.22c0.16,1.37,0.34,3.35,0.34,5v11.52h-3.48V69.23z"/>
<path class="st0" d="M47.75,82.55l-1.68-6.27c-0.31-1.12-0.56-2.2-0.87-3.79h-0.19c-0.31,1.55-0.5,2.58-0.84,3.79l-1.71,6.27H47.75z
	 M42.99,69.23h4.22l6.18,21.42h-3.54l-1.46-5.21h-6.59l-1.43,5.21h-3.6L42.99,69.23z"/>
<polygon class="st0" points="57.16,72.27 51.75,72.27 51.75,69.23 66.04,69.23 66.04,72.27 60.63,72.27 60.63,90.65 57.16,90.65 "/>
<rect x="67.81" y="69.23" class="st0" width="3.48" height="21.42"/>
<path class="st0" d="M87.52,79.97c0-5.28-1.65-8.01-4.81-8.01c-3.2,0-4.81,2.73-4.81,8.01c0,5.25,1.62,7.95,4.81,7.95
	C85.87,87.92,87.52,85.22,87.52,79.97 M74.23,79.97c0-6.98,3.04-11.05,8.48-11.05c5.4,0,8.45,4.07,8.45,11.05
	c0,6.95-3.04,10.99-8.45,10.99C77.27,90.96,74.23,86.93,74.23,79.97"/>
<path class="st0" d="M94.28,69.23h3.76l6.4,12.54c0.56,1.09,1.15,2.73,1.65,4.03h0.22c-0.22-1.74-0.34-3.57-0.34-4.78v-11.8h3.45
	v21.42h-3.73l-6.31-12.32c-0.68-1.37-1.18-2.67-1.74-4.19h-0.22c0.16,1.37,0.34,3.35,0.34,5v11.52h-3.48V69.23z"/>
<path class="st0" d="M122.4,82.55l-1.68-6.27c-0.31-1.12-0.56-2.2-0.87-3.79h-0.19c-0.31,1.55-0.5,2.58-0.84,3.79l-1.71,6.27H122.4z
	 M117.64,69.23h4.22l6.18,21.42h-3.54l-1.46-5.21h-6.59l-1.43,5.21h-3.6L117.64,69.23z"/>
<polygon class="st0" points="129.93,69.23 133.41,69.23 133.41,87.61 141.77,87.61 141.77,90.65 129.93,90.65 "/>
<path class="st0" d="M26.88,135.16l-1.68-6.27c-0.31-1.12-0.56-2.2-0.87-3.79h-0.19c-0.31,1.55-0.5,2.58-0.84,3.79l-1.71,6.27H26.88
	z M22.12,121.84h4.22l6.18,21.42h-3.54l-1.46-5.21h-6.59l-1.43,5.21h-3.6L22.12,121.84z"/>
<path class="st0" d="M39.93,132.49c2.52,0,3.39-1.61,3.39-3.85c0-2.17-0.96-3.85-3.39-3.85h-2.67v7.7H39.93z M33.81,121.84h6.4
	c4.54,0,6.71,2.45,6.71,6.58c0,3.1-1.49,5.59-3.7,6.27v0.19c1.02,1.15,3.98,7.54,4.78,7.88v0.5h-3.76c-0.99-0.56-3.63-7.2-4.44-7.76
	h-2.52v7.76h-3.48V121.84z"/>
<path class="st0" d="M52.87,132.49c0,5.34,1.86,8.04,4.75,8.04c2.86,0,4.01-2.02,3.98-5.18l3.48,0.12c0.03,0.16,0.06,0.43,0.06,0.59
	c0,4.41-2.14,7.51-7.48,7.51c-5.16,0-8.48-3.88-8.48-11.08c0-7.05,3.32-10.96,8.48-10.96c6.43,0,7.52,4.62,7.52,7.2
	c0,0.31-0.03,0.71-0.06,0.9l-3.51,0.12c0.03-3.29-1.15-5.18-3.98-5.18C54.76,124.58,52.87,127.34,52.87,132.49"/>
<polygon class="st0" points="67.98,121.84 71.46,121.84 71.46,130.88 79.78,130.88 79.78,121.84 83.26,121.84 83.26,143.26 
	79.78,143.26 79.78,133.95 71.46,133.95 71.46,143.26 67.98,143.26 "/>
<rect x="87.86" y="121.84" class="st0" width="3.48" height="21.42"/>
<path class="st0" d="M94.16,121.84h3.63l3.23,12.32c0.5,1.92,0.78,3.63,1.12,5.62h0.25c0.34-2.02,0.62-3.69,1.12-5.62l3.2-12.32
	h3.63l-6.06,21.42h-4.07L94.16,121.84z"/>
<polygon class="st0" points="112.72,121.84 124.99,121.84 124.99,124.86 116.2,124.86 116.2,130.91 123.56,130.91 123.56,133.92 
	116.2,133.92 116.2,140.22 124.99,140.22 124.99,143.26 112.72,143.26 "/>
<path class="st0" d="M130.42,136c-0.03,0.25-0.06,0.53-0.06,0.78c0,1.92,0.78,3.72,3.42,3.72c2.14,0,3.29-1.18,3.29-2.89
	c0-1.55-0.68-2.45-2.24-3.01l-3.45-1.27c-2.42-0.9-4.22-2.45-4.22-5.74c0-3.54,2.33-6.05,6.62-6.05c5.47,0,6.43,3.6,6.43,5.87
	c0,0.34-0.03,0.71-0.09,1.06l-3.42,0.06c0.03-0.22,0.06-0.53,0.06-0.74c0-1.68-0.59-3.17-3.04-3.17c-2.08,0-3.01,1.24-3.01,2.82
	c0,1.74,0.93,2.48,2.21,2.95l3.51,1.27c2.64,0.96,4.26,2.64,4.26,5.77c0,3.6-2.39,6.15-6.99,6.15c-5.87,0-6.83-3.91-6.83-6.46
	c0-0.31,0.03-0.65,0.09-0.99L130.42,136z"/>
</svg>
